<?xml version="1.0" standalone="no"?><!DOCTYPE svg PUBLIC "-//W3C//DTD SVG 1.1//EN" "http://www.w3.org/Graphics/SVG/1.1/DTD/svg11.dtd"><svg t="1555833075072" class="icon" style="" viewBox="0 0 1024 1024" version="1.1" xmlns="http://www.w3.org/2000/svg" p-id="2341" xmlns:xlink="http://www.w3.org/1999/xlink" width="200" height="200"><defs><style type="text/css"></style></defs><path d="M667.2 489.4c-20.2-1.4-38.6-12-50-28.8-4.8-7-10.4-13.6-16.8-19.6-42.8-39.6-109.6-40-152.6-0.6-47.8 43.6-49 117.8-3.8 163.2 5 5 10.4 9.6 16.2 13.4 16.8 11.6 27.6 29.8 29.2 50.2 2.8 39.4 19.8 78 50.6 107.6 64.2 61.8 167.2 61.6 231-0.6 66.6-64.8 67.2-171.2 1.6-236.6-29.4-29.4-67-45.4-105.4-48.2z" fill="#FE8E46" p-id="2342"></path><path d="M808 706.8c-64 62.2-166.8 62.4-231 0.6-30.8-29.6-47.6-68.2-50.6-107.6-1.4-20.4-12.2-38.6-29.2-50.2-5.6-3.8-11-8.4-16.2-13.4-26.4-26.4-37-62.8-31.6-97-0.6 0.4-1 1-1.6 1.4-47.8 43.6-49 117.8-3.8 163.2 5 5 10.4 9.6 16.2 13.4 16.8 11.6 27.6 29.8 29.2 50.2 2.8 39.4 19.8 78 50.6 107.6 64.2 61.8 167.2 61.6 231-0.6 22-21.4 36.8-47.6 44.4-75.2-2.6 2.4-5 5-7.4 7.6z" fill="#E56823" p-id="2343"></path><path d="M655 835c-47 0-91.4-17.8-125-50.2-32-30.8-51.6-72.4-54.8-116.6-1.2-16-9.6-30.4-23-39.6-6.4-4.4-12.6-9.4-18.2-15-24.8-24.8-38-57.6-37.2-92.6 0.8-35 15.4-67.2 41.4-90.8 48.2-44.2 123.6-43.8 171.6 0.6 7.2 6.6 13.4 14 18.8 22 9 13.2 23.4 21.4 39.4 22.6 43 3.2 83.6 21.8 114 52.2 34.4 34.4 53.2 80 52.8 128.6-0.4 48.6-19.8 94-54.6 128-33.6 32.6-78 50.6-125.2 50.8 0.2 0 0.2 0 0 0z m-131.2-409.8c-24 0-47.8 8.6-66.6 25.6-20.2 18.4-31.6 43.6-32.2 70.8-0.6 27.2 9.6 52.8 29 72.2 4.4 4.4 9.2 8.2 14.2 11.8 20.6 14 33.4 36.2 35.2 60.8 2.8 37.4 19.2 72.4 46.2 98.6 28.4 27.2 65.8 42.4 105.4 42.4h0.4c39.8-0.2 77.4-15.4 105.6-42.8 29.4-28.6 45.8-67 46.2-108 0.2-41-15.6-79.6-44.6-108.6-25.8-25.8-60-41.4-96.4-44.2-24.8-1.8-46.8-14.6-60.6-34.8-4.2-6.2-9.2-12-14.8-17.2-18.6-17.8-42.8-26.6-67-26.6z" fill="#463218" p-id="2344"></path><path d="M313.036 360.128l46.95-46.952 207.746 207.746-46.95 46.952z" fill="#7DAC51" p-id="2345"></path><path d="M313.042 360.136l23.76-23.76 207.746 207.748-23.76 23.758z" fill="#5B7C31" p-id="2346"></path><path d="M520.8 581.8c-3.6 0-7.2-1.4-10-4.2L303.2 370c-2.6-2.6-4-6.2-4-9.8s1.4-7.2 4.2-9.8l47-47c5.4-5.4 14.4-5.4 19.8 0L578 511.2c2.6 2.6 4 6.2 4 9.8s-1.4 7.2-4.2 9.8l-47 47c-2.8 2.8-6.4 4-10 4z m-188-221.6l188 188 27.2-27.2-188-188-27.2 27.2z" fill="#463218" p-id="2347"></path><path d="M506.263218 571.194281a45.8 45.8 0 1 0 64.769851-64.772112 45.8 45.8 0 1 0-64.769851 64.772112Z" fill="#FEFE71" p-id="2348"></path><path d="M582.4 535.6c-18 18-47 18-64.8 0-7.6-7.6-12-17.4-13.2-27.4-16 18-15.4 45.6 1.8 63 18 18 47 18 64.8 0 10.2-10.2 14.6-24.2 13.2-37.6-0.6 0.8-1.2 1.4-1.8 2z" fill="#D6CD1E" p-id="2349"></path><path d="M538.6 598.6c-15.4 0-30.6-5.8-42.4-17.6-11.4-11.4-17.6-26.4-17.6-42.4s6.2-31 17.6-42.4c23.4-23.4 61.4-23.4 84.6 0 11.4 11.4 17.6 26.4 17.6 42.4s-6.2 31-17.6 42.4c-11.6 11.8-26.8 17.6-42.2 17.6z m0-91.8c-8.2 0-16.4 3.2-22.6 9.4-12.4 12.4-12.4 32.6 0 45 12.4 12.4 32.6 12.4 45 0 12.4-12.4 12.4-32.6 0-45-6-6.2-14.2-9.4-22.4-9.4z" fill="#463218" p-id="2350"></path><path d="M597.24 702.028l104.652-104.65 33.232 33.234-104.65 104.65z" fill="#FEFE71" p-id="2351"></path><path d="M630.6 749.2c-3.6 0-7.2-1.4-10-4.2L587.4 712c-5.4-5.4-5.4-14.4 0-19.8l104.6-104.6c2.6-2.6 6.2-4.2 10-4.2s7.2 1.4 10 4.2l33.2 33.2c5.4 5.4 5.4 14.4 0 19.8l-104.6 104.6c-2.8 2.8-6.4 4-10 4z m-13.6-47.2l13.4 13.4 84.8-84.8-13.4-13.4-84.8 84.8z" fill="#463218" p-id="2352"></path><path d="M765.4 731l-25-12.6c20.8-41.4 14.6-70.4 14.6-70.8l27.2-6.4c0.6 1.4 9 38.6-16.8 89.8z" fill="#FFFFFF" p-id="2353"></path><path d="M241.8 203l-14.2 14.2-10.6 10.6-14.2 14.2 23.6 73.2 45 45 49.8 0.2 39-39-0.2-50-45-44.8z" fill="#FEFE71" p-id="2354"></path><path d="M260.4 281.2L236.8 208l-9.2 9.2-10.6 10.6-14.2 14.2 23.6 73.2 45 45 49.8 0.2 34-34-49.8-0.2z" fill="#D6CD1E" p-id="2355"></path><path d="M321.2 374.4l-49.8-0.2c-3.6 0-7.2-1.4-9.8-4.2l-45-45c-1.6-1.6-2.8-3.4-3.4-5.6l-23.6-73.2c-1.6-5-0.2-10.4 3.4-14.2L232 193c3.8-3.8 9.2-5 14.2-3.4l73.2 23.6c2.2 0.6 4 1.8 5.6 3.4l45 45c2.6 2.6 4 6.2 4 9.8l0.2 49.8c0 3.8-1.4 7.4-4 10l-39 39c-2.8 2.6-6.2 4.2-10 4.2z m-44-28.2l38.2 0.2 30.8-30.8-0.2-38.2-38.4-38.4-61.8-20-27 27 20 61.8 38.4 38.4z" fill="#463218" p-id="2356"></path></svg>